<svg width="43" height="41" viewBox="0 0 43 41" fill="none" xmlns="http://www.w3.org/2000/svg">
<g filter="url(#filter0_d)">
<path d="M21.5 1.21289C26.4007 1.21289 30.3867 4.28783 30.3867 8.06836C30.3867 11.8489 26.4007 14.9238 21.5 14.9238C16.5993 14.9238 12.6133 11.8489 12.6133 8.06836C12.6133 4.28783 16.5993 1.21289 21.5 1.21289ZM22.0694 2.85435L22.8743 4.71303L19.3097 4.42494L19.6642 3.50436L18.6645 3.71788V4.73919L17.103 4.81776L17.4084 3.90124L16.5876 3.53452C14.9094 4.61705 13.8437 6.24465 13.8437 8.06836C13.8437 8.94734 14.0915 9.7807 14.5359 10.5296L16.3221 10.7628L16.3221 12.4227C16.6628 12.6639 17.0312 12.8809 17.4226 13.0708L18.1893 12.1507L19.6831 12.465L19.2634 13.7194C19.9885 13.8891 20.7422 13.9751 21.5 13.9746C23.62 13.9746 25.5357 13.3136 26.9207 12.2436L25.5562 12.0984L24.6395 10.7104L27.5593 9.58426L25.4883 8.22234L27.2876 7.0701L29.1259 7.54276C28.9132 5.67343 27.5774 4.05686 25.64 3.0963L25.2506 5.49867L22.0694 2.85435ZM19.4116 6.2408L21.8842 7.46297L19.7236 8.94444L18.1631 8.59259L18.3073 10.037L15.4505 9.48148L16.5309 7.59264L18.2592 7.61115L16.7228 6.59264L19.4116 6.2408ZM21.9801 8.37037L23.3004 8.81476L22.3642 9.35181L21.9801 8.37037ZM25.081 8.53669L25.9975 9.37464L23.4582 10.7514L25.081 8.53669ZM20.9958 8.99996L21.932 10.3519L19.6755 11.5371L20.4677 10.6666L19.4835 9.75923L20.9958 8.99996ZM34.8868 10.4446C35.4896 10.4374 36.1065 11.0296 36.1101 12.5478C36.1154 14.8762 36.4079 15.5334 35.0111 18.1667C33.9868 20.0977 33.5275 21.5819 30.25 22.7812C29.8617 23.8371 30.0167 24.0854 30.2801 24.9877C30.5259 25.83 27.9953 25.9849 26.142 25.2752C24.1533 24.4384 24.3202 22.1345 24.6755 20.5722C25.0886 18.7552 26.3886 18.3776 27.5153 17.6015C28.6853 16.3108 28.9576 13.9727 30.8551 13.0295C31.2514 12.8325 33.273 12.6326 30.4954 17.9835C34.1575 17.2838 33.4904 14.0404 33.7552 11.639C33.8341 10.9239 34.355 10.451 34.8868 10.4446ZM8.11316 10.4446C8.645 10.451 9.16582 10.9239 9.24471 11.6391C9.50953 14.0404 8.84249 17.2838 12.5046 17.9835C9.72692 12.6325 11.7486 12.8325 12.1449 13.0295C14.0424 13.9727 14.3146 16.3108 15.4846 17.6016C16.6113 18.3776 17.9114 18.7552 18.3245 20.5722C18.6797 22.1345 18.8466 24.4384 16.858 25.2752C15.0047 25.9848 12.4741 25.83 12.72 24.9877C12.9833 24.0854 13.1383 23.8371 12.75 22.7812C9.47242 21.5819 9.01311 20.0977 7.98888 18.1667C6.59209 15.5334 6.88453 14.8762 6.88987 12.5478C6.89342 11.0296 7.51037 10.4374 8.11316 10.4446Z" fill="white"/>
<path d="M10.585 28.3086L10.6924 28.792C10.3773 28.8135 9.82585 28.8493 9.03809 28.8994C8.25033 28.9424 7.69889 28.9782 7.38379 29.0068C7.40527 29.6872 7.4196 30.8258 7.42676 32.4229C7.43392 34.0199 7.45182 35.1908 7.48047 35.9355C7.41602 36.1576 7.29069 36.2686 7.10449 36.2686C6.97559 36.2686 6.85026 36.2148 6.72852 36.1074C6.61393 36 6.54232 35.8711 6.51367 35.7207C6.59245 34.8184 6.64258 32.7093 6.66406 29.3936C6.66406 29.2718 6.66406 29.0856 6.66406 28.835C6.67122 28.5843 6.6748 28.3874 6.6748 28.2441C7.06152 28.2656 7.45182 28.2764 7.8457 28.2764C8.00326 28.2764 8.23958 28.2764 8.55469 28.2764C8.86979 28.2692 9.10612 28.2656 9.26367 28.2656C9.75065 28.2656 10.1911 28.2799 10.585 28.3086ZM8.47949 36.9668L8.30762 36.5049C8.54395 36.4118 8.75879 36.265 8.95215 36.0645C9.13835 35.8639 9.29232 35.6562 9.41406 35.4414C9.53581 35.2194 9.63965 34.9437 9.72559 34.6143C9.81152 34.2848 9.8724 33.9984 9.9082 33.7549C9.95117 33.5042 9.9834 33.1963 10.0049 32.8311C10.0264 32.4658 10.0371 32.1937 10.0371 32.0146C10.0443 31.8285 10.0479 31.5814 10.0479 31.2734C10.0479 30.8366 10.0872 30.5752 10.166 30.4893C10.2663 30.3818 10.8213 30.3281 11.8311 30.3281C12.626 30.3281 13.0771 30.3245 13.1846 30.3174C13.1989 33.2249 13.2347 35.112 13.292 35.9785C13.2204 36.1934 13.0951 36.3008 12.916 36.3008C12.7943 36.3008 12.6761 36.2507 12.5615 36.1504C12.4469 36.0501 12.3753 35.9284 12.3467 35.7852C12.3395 35.5059 12.3359 35.0905 12.3359 34.5391C12.3359 34.2669 12.3359 33.8551 12.3359 33.3037C12.3431 32.7523 12.3467 32.3369 12.3467 32.0576C12.3467 31.542 12.3431 31.1553 12.3359 30.8975C12.0352 30.9476 11.738 30.9762 11.4443 30.9834C11.1507 30.9906 10.943 31.0013 10.8213 31.0156C10.7998 31.252 10.7819 31.6029 10.7676 32.0684C10.7533 32.5339 10.7389 32.9456 10.7246 33.3037C10.7174 33.6546 10.6745 34.0557 10.5957 34.5068C10.5169 34.9508 10.4023 35.3304 10.252 35.6455C10.1087 35.9535 9.88314 36.2292 9.5752 36.4727C9.27441 36.7233 8.90918 36.888 8.47949 36.9668ZM14.5488 31.3594L14.334 30.8115C14.5202 30.6253 14.7565 30.4785 15.043 30.3711C15.3294 30.2565 15.6123 30.1992 15.8916 30.1992C17.1019 30.1992 17.707 31.2448 17.707 33.3359C17.707 33.6224 17.6891 34.0449 17.6533 34.6035C17.6247 35.1621 17.6104 35.5811 17.6104 35.8604C17.5531 36.0824 17.4421 36.1934 17.2773 36.1934C17.1484 36.1934 17.0303 36.1289 16.9229 36C16.8154 35.8711 16.7617 35.7279 16.7617 35.5703C16.7617 35.5202 16.7653 35.4844 16.7725 35.4629C16.3285 35.8926 15.8558 36.1074 15.3545 36.1074C14.9749 36.1074 14.6419 35.9714 14.3555 35.6992C14.0762 35.4199 13.9365 35.0833 13.9365 34.6895C13.9365 34.0234 14.1943 33.4219 14.71 32.8848C15.2327 32.3477 15.8236 32.0791 16.4824 32.0791C16.5111 32.0791 16.5397 32.0827 16.5684 32.0898C16.597 32.0898 16.6292 32.0934 16.665 32.1006C16.708 32.1077 16.7402 32.1113 16.7617 32.1113C16.7044 31.2734 16.3714 30.8545 15.7627 30.8545C15.4046 30.8545 15 31.0228 14.5488 31.3594ZM16.7939 34.7217C16.8083 34.2204 16.8154 33.8408 16.8154 33.583C16.8154 33.3682 16.8083 33.0674 16.7939 32.6807H16.708C16.1995 32.6878 15.734 32.8776 15.3115 33.25C14.8962 33.6224 14.6885 34.0736 14.6885 34.6035C14.6885 34.8327 14.7565 35.0153 14.8926 35.1514C15.0358 35.2874 15.2077 35.3555 15.4082 35.3555C15.7233 35.3555 16.1852 35.1442 16.7939 34.7217ZM18.8135 30.4893C19.9235 30.2529 20.6003 30.1348 20.8438 30.1348C21.8034 30.1348 22.2832 30.5465 22.2832 31.3701C22.2832 31.6566 22.2331 31.9359 22.1328 32.208C22.0397 32.473 21.9215 32.6484 21.7783 32.7344C22.3369 33.1139 22.6162 33.6367 22.6162 34.3027C22.6162 34.9329 22.4085 35.4235 21.9932 35.7744C21.585 36.1253 21.0443 36.3008 20.3711 36.3008C19.569 36.3008 18.971 36.0859 18.5771 35.6562L18.8135 30.4893ZM19.4258 33.1855L19.5225 35.3662C19.7015 35.4521 19.9056 35.4951 20.1348 35.4951C20.5788 35.4951 20.987 35.3555 21.3594 35.0762C21.7318 34.7969 21.918 34.471 21.918 34.0986C21.918 33.8408 21.8177 33.6045 21.6172 33.3896C21.4167 33.1676 21.1624 33.0566 20.8545 33.0566C20.6755 33.0566 20.1992 33.0996 19.4258 33.1855ZM19.3184 30.9727L19.3936 32.627C19.501 32.6126 19.6657 32.6019 19.8877 32.5947C20.1097 32.5876 20.2887 32.5732 20.4248 32.5518C20.5609 32.5231 20.7113 32.4694 20.876 32.3906C21.0407 32.3047 21.1696 32.1579 21.2627 31.9502C21.363 31.7425 21.431 31.4704 21.4668 31.1338C21.3952 30.9189 21.1768 30.8115 20.8115 30.8115C20.6468 30.8115 20.389 30.8366 20.0381 30.8867C19.6872 30.9368 19.4473 30.9655 19.3184 30.9727ZM26.6982 30.5537L27.1816 30.6611L27.4287 35.8711C27.3643 36.0859 27.2389 36.1934 27.0527 36.1934C26.9238 36.1934 26.7985 36.1396 26.6768 36.0322C26.555 35.932 26.4798 35.8066 26.4512 35.6562C26.4512 35.6348 26.4834 35.0296 26.5479 33.8408V33.7549C26.3473 33.7406 26.0501 33.7334 25.6562 33.7334C25.0618 33.7334 24.6143 33.7155 24.3135 33.6797C24.3493 34.0951 24.3958 34.7646 24.4531 35.6885C24.3887 35.9105 24.2633 36.0215 24.0771 36.0215C23.9482 36.0215 23.8229 35.9714 23.7012 35.8711C23.5866 35.7637 23.515 35.6348 23.4863 35.4844C23.5078 35.1263 23.5186 34.7682 23.5186 34.4102C23.5186 34.181 23.515 33.8372 23.5078 33.3789C23.5007 32.9206 23.4971 32.5804 23.4971 32.3584C23.4971 31.6709 23.5186 31.0944 23.5615 30.6289L24.0449 30.7471C24.1882 32.3011 24.2633 33.0996 24.2705 33.1426C25.4951 33.207 26.1253 33.2393 26.1611 33.2393C26.4548 33.2393 26.6016 33.2214 26.6016 33.1855C26.6016 33.0423 26.6159 32.5876 26.6445 31.8213C26.6732 31.055 26.6911 30.6325 26.6982 30.5537ZM28.6855 31.3594L28.4707 30.8115C28.6569 30.6253 28.8932 30.4785 29.1797 30.3711C29.4661 30.2565 29.749 30.1992 30.0283 30.1992C31.2386 30.1992 31.8438 31.2448 31.8438 33.3359C31.8438 33.6224 31.8258 34.0449 31.79 34.6035C31.7614 35.1621 31.7471 35.5811 31.7471 35.8604C31.6898 36.0824 31.5788 36.1934 31.4141 36.1934C31.2852 36.1934 31.167 36.1289 31.0596 36C30.9521 35.8711 30.8984 35.7279 30.8984 35.5703C30.8984 35.5202 30.902 35.4844 30.9092 35.4629C30.4652 35.8926 29.9925 36.1074 29.4912 36.1074C29.1117 36.1074 28.7786 35.9714 28.4922 35.6992C28.2129 35.4199 28.0732 35.0833 28.0732 34.6895C28.0732 34.0234 28.3311 33.4219 28.8467 32.8848C29.3695 32.3477 29.9603 32.0791 30.6191 32.0791C30.6478 32.0791 30.6764 32.0827 30.7051 32.0898C30.7337 32.0898 30.766 32.0934 30.8018 32.1006C30.8447 32.1077 30.877 32.1113 30.8984 32.1113C30.8411 31.2734 30.5081 30.8545 29.8994 30.8545C29.5413 30.8545 29.1367 31.0228 28.6855 31.3594ZM30.9307 34.7217C30.945 34.2204 30.9521 33.8408 30.9521 33.583C30.9521 33.3682 30.945 33.0674 30.9307 32.6807H30.8447C30.3363 32.6878 29.8708 32.8776 29.4482 33.25C29.0329 33.6224 28.8252 34.0736 28.8252 34.6035C28.8252 34.8327 28.8932 35.0153 29.0293 35.1514C29.1725 35.2874 29.3444 35.3555 29.5449 35.3555C29.86 35.3555 30.3219 35.1442 30.9307 34.7217ZM36.3984 30.4248L36.5596 36.1934C36.488 36.4082 36.3662 36.5156 36.1943 36.5156C36.0726 36.5156 35.9508 36.4655 35.8291 36.3652C35.7145 36.265 35.6429 36.1432 35.6143 36L35.7217 33.6689C35.4209 33.8623 35.1094 33.9626 34.7871 33.9697C34.515 34.8649 34.1712 35.5202 33.7559 35.9355C33.3477 36.3509 32.6924 36.6839 31.79 36.9346L31.6182 36.4727C32.9574 36.1361 33.7201 35.2516 33.9062 33.8193C33.5625 33.6761 33.276 33.4577 33.0469 33.1641C32.8249 32.8704 32.7139 32.5339 32.7139 32.1543C32.7139 31.3952 32.9072 30.8903 33.2939 30.6396C33.6807 30.389 34.293 30.2637 35.1309 30.2637C35.5677 30.2637 35.9902 30.3174 36.3984 30.4248ZM35.8076 32.7666L35.7539 31.0693C35.5033 30.9906 35.1344 30.9512 34.6475 30.9512C34.3037 30.9512 34.0101 31.0299 33.7666 31.1875C33.5231 31.3379 33.4014 31.585 33.4014 31.9287C33.4014 32.3154 33.5553 32.6484 33.8633 32.9277C34.1712 33.1999 34.5078 33.3359 34.873 33.3359C35.3027 33.3359 35.6143 33.1462 35.8076 32.7666Z" fill="white"/>
</g>
<defs>
<filter id="filter0_d" x="0" y="0" width="43" height="44.9668" filterUnits="userSpaceOnUse" color-interpolation-filters="sRGB">
<feFlood flood-opacity="0" result="BackgroundImageFix"/>
<feColorMatrix in="SourceAlpha" type="matrix" values="0 0 0 0 0 0 0 0 0 0 0 0 0 0 0 0 0 0 127 0"/>
<feOffset dy="4"/>
<feGaussianBlur stdDeviation="2"/>
<feColorMatrix type="matrix" values="0 0 0 0 0 0 0 0 0 0 0 0 0 0 0 0 0 0 0.25 0"/>
<feBlend mode="normal" in2="BackgroundImageFix" result="effect1_dropShadow"/>
<feBlend mode="normal" in="SourceGraphic" in2="effect1_dropShadow" result="shape"/>
</filter>
</defs>
</svg>
