<svg width="64" height="40" viewBox="0 0 64 40" fill="none" xmlns="http://www.w3.org/2000/svg">
<g filter="url(#filter0_d)">
<path d="M31.4165 11.9922C35.1685 11.9922 38.2102 9.30764 38.2102 5.99609C38.2102 2.68454 35.1685 0 31.4165 0C27.6644 0 24.6228 2.68454 24.6228 5.99609C24.6228 9.30764 27.6644 11.9922 31.4165 11.9922Z" fill="white"/>
<path d="M22.2441 12.5073L19.6202 17.5326C19.1544 18.6759 19.7713 20.0529 20.9974 20.6089L29.3541 23.5461C30.5802 24.1021 32.5942 24.1483 33.8521 23.6496L42.4079 20.5056C43.6652 20.0068 44.1671 18.7298 43.5285 17.6531L40.1336 12.3863C39.4949 11.3101 38.2177 11.1781 37.0546 11.8315C35.708 12.5882 33.676 13.3701 31.0321 13.3701C28.3882 13.3701 26.3561 12.5881 25.0095 11.832C23.8466 11.1786 22.7097 11.3639 22.2441 12.5073Z" fill="white"/>
<path d="M12.3477 35L11.5312 35.0752C11.1374 32.6045 10.7113 30.4883 10.2529 28.7266C10.0166 29.2852 9.75521 30.0729 9.46875 31.0898C9.18945 32.0996 8.99609 32.7549 8.88867 33.0557C8.87435 33.0557 8.84928 33.0592 8.81348 33.0664C8.78483 33.0664 8.75977 33.0664 8.73828 33.0664C8.63802 33.0664 8.47331 33.0557 8.24414 33.0342C8.01497 33.0127 7.86816 33.002 7.80371 33.002C7.79655 32.7943 7.61393 32.1032 7.25586 30.9287C6.89779 29.7471 6.68294 28.9915 6.61133 28.6621C6.48242 29.8223 5.98112 31.9349 5.10742 35L4.44141 34.9355C4.54167 34.1549 4.78874 32.9268 5.18262 31.251C5.5765 29.5752 5.80924 28.279 5.88086 27.3623C6.00977 27.348 6.11361 27.3408 6.19238 27.3408C6.264 27.3408 6.52897 27.3695 6.9873 27.4268C7.08757 27.4411 7.23079 27.7669 7.41699 28.4043C7.61035 29.0345 7.80371 29.7292 7.99707 30.4883C8.19043 31.2474 8.31217 31.695 8.3623 31.8311C8.56283 31.3369 8.80273 30.5348 9.08203 29.4248C9.36849 28.3148 9.56901 27.6094 9.68359 27.3086C9.79818 27.3158 10.1598 27.348 10.7686 27.4053C10.9548 28.1286 11.1338 28.9092 11.3057 29.7471C11.4847 30.585 11.6745 31.5374 11.875 32.6045C12.0827 33.6715 12.2402 34.4701 12.3477 35ZM12.7881 32.7119C12.7881 32.4255 12.8167 32.1068 12.874 31.7559C12.9385 31.4049 13.0316 31.0361 13.1533 30.6494C13.2751 30.2627 13.4577 29.9404 13.7012 29.6826C13.9447 29.4248 14.2275 29.2959 14.5498 29.2959C15.2373 29.2959 15.7887 29.6074 16.2041 30.2305C16.6195 30.8464 16.8271 31.5339 16.8271 32.293C16.8271 32.6152 16.7913 32.9375 16.7197 33.2598C16.6553 33.5749 16.5514 33.8864 16.4082 34.1943C16.265 34.5023 16.0573 34.7601 15.7852 34.9678C15.5202 35.1683 15.2087 35.2829 14.8506 35.3115C14.1917 35.2256 13.6833 34.9463 13.3252 34.4736C12.9671 33.9938 12.7881 33.4066 12.7881 32.7119ZM14.6143 29.8545C14.3636 29.8831 14.1523 30.1123 13.9805 30.542C13.8086 30.9717 13.6976 31.3906 13.6475 31.7988C13.5973 32.1999 13.5723 32.5544 13.5723 32.8623C13.5723 33.2633 13.694 33.6357 13.9375 33.9795C14.1882 34.3161 14.4674 34.4844 14.7754 34.4844C14.9974 34.4844 15.1979 34.3984 15.377 34.2266C15.556 34.0547 15.6956 33.8434 15.7959 33.5928C15.9033 33.335 15.9821 33.0771 16.0322 32.8193C16.0895 32.5615 16.1182 32.3324 16.1182 32.1318C16.1182 31.5446 15.9857 31.0326 15.7207 30.5957C15.4557 30.1589 15.0869 29.9118 14.6143 29.8545ZM18.6748 28.3184L18.5996 27.9854C18.7715 28.0068 18.9398 28.0176 19.1045 28.0176C19.5986 28.0176 20.0534 27.8815 20.4688 27.6094C20.6335 27.6237 20.7731 27.6738 20.8877 27.7598C21.0023 27.8457 21.0596 27.946 21.0596 28.0605C21.0596 28.1536 21.0273 28.2288 20.9629 28.2861C20.8984 28.3434 20.8018 28.3864 20.6729 28.415C20.5439 28.4365 20.4365 28.4508 20.3506 28.458C20.2646 28.458 20.1501 28.458 20.0068 28.458C19.5413 28.458 19.0973 28.4115 18.6748 28.3184ZM18.6426 34.1084C18.6426 34.2301 18.6497 34.3913 18.6641 34.5918C18.5996 34.8138 18.4743 34.9248 18.2881 34.9248C18.1592 34.9248 18.0339 34.8747 17.9121 34.7744C17.7975 34.667 17.7259 34.5381 17.6973 34.3877C17.7188 33.8076 17.7438 32.959 17.7725 31.8418C17.8083 30.7246 17.8333 29.9691 17.8477 29.5752L18.3418 29.4893C18.4277 29.9476 18.4814 30.5563 18.5029 31.3154C18.5244 32.0745 18.5531 32.6403 18.5889 33.0127C18.7249 32.8122 19.1117 32.2894 19.749 31.4443C20.3864 30.5993 20.8197 29.9691 21.0488 29.5537C21.2064 29.5251 21.3066 29.5107 21.3496 29.5107C21.4857 29.5107 21.5788 29.5716 21.6289 29.6934C21.6862 29.8151 21.722 30.0443 21.7363 30.3809L21.9404 34.8066C21.876 35.0215 21.7507 35.1289 21.5645 35.1289C21.4355 35.1289 21.3102 35.0788 21.1885 34.9785C21.0739 34.8711 21.0023 34.7422 20.9736 34.5918C20.9808 34.3555 20.9987 33.779 21.0273 32.8623C21.0632 31.9385 21.0918 31.2832 21.1133 30.8965C19.8887 32.293 19.0651 33.3636 18.6426 34.1084ZM25.9688 29.6289L29.5889 29.6611L29.8359 34.8711C29.7715 35.0859 29.6462 35.1934 29.46 35.1934C29.3311 35.1934 29.2057 35.1396 29.084 35.0322C28.9622 34.932 28.887 34.8066 28.8584 34.6562C28.8656 34.5273 28.8763 34.1227 28.8906 33.4424C28.9121 32.7549 28.9336 32.0996 28.9551 31.4766C28.9766 30.8464 28.9909 30.4382 28.998 30.252C28.7975 30.2376 28.5003 30.2305 28.1064 30.2305C27.5693 30.2305 27.1217 30.209 26.7637 30.166C26.7852 30.4023 26.8031 31.165 26.8174 32.4541C26.8317 33.736 26.846 34.4808 26.8604 34.6885C26.7959 34.9105 26.6706 35.0215 26.4844 35.0215C26.3555 35.0215 26.2301 34.9714 26.1084 34.8711C25.9938 34.7637 25.9222 34.6348 25.8936 34.4844C25.915 34.1263 25.9258 33.7682 25.9258 33.4102C25.9258 33.224 25.9222 32.916 25.915 32.4863C25.9079 32.0566 25.9043 31.7165 25.9043 31.4658C25.9043 30.7282 25.9258 30.1159 25.9688 29.6289ZM30.835 29.3496L31.4365 29.457C31.4365 29.6074 31.4401 29.7184 31.4473 29.79C31.8411 29.5394 32.2386 29.4141 32.6396 29.4141C33.2913 29.4141 33.7998 29.6934 34.165 30.252C34.5303 30.8105 34.7129 31.4443 34.7129 32.1533C34.7129 32.5114 34.6842 32.8551 34.627 33.1846C34.5768 33.5068 34.4837 33.8398 34.3477 34.1836C34.2116 34.5202 34.0003 34.7923 33.7139 35C33.4346 35.2005 33.0944 35.3008 32.6934 35.3008C32.3138 35.3008 31.9486 35.2005 31.5977 35C31.6263 36.2533 31.6514 37.1842 31.6729 37.793C31.6084 38.015 31.4831 38.126 31.2969 38.126C31.168 38.126 31.0426 38.0723 30.9209 37.9648C30.8063 37.8646 30.7347 37.7393 30.7061 37.5889L30.835 29.3496ZM31.5332 30.4883L31.5654 33.958C31.6514 34.1299 31.7839 34.2695 31.9629 34.377C32.1419 34.4772 32.3389 34.5273 32.5537 34.5273C32.833 34.5273 33.0693 34.4378 33.2627 34.2588C33.4632 34.0798 33.6029 33.8434 33.6816 33.5498C33.7676 33.249 33.8249 32.9697 33.8535 32.7119C33.8893 32.4541 33.9072 32.182 33.9072 31.8955C33.9072 30.6781 33.4954 30.0693 32.6719 30.0693C32.4069 30.0693 32.1598 30.1087 31.9307 30.1875C31.7087 30.2591 31.5762 30.3594 31.5332 30.4883ZM35.583 32.7119C35.583 32.4255 35.6117 32.1068 35.6689 31.7559C35.7334 31.4049 35.8265 31.0361 35.9482 30.6494C36.07 30.2627 36.2526 29.9404 36.4961 29.6826C36.7396 29.4248 37.0225 29.2959 37.3447 29.2959C38.0322 29.2959 38.5837 29.6074 38.999 30.2305C39.4144 30.8464 39.6221 31.5339 39.6221 32.293C39.6221 32.6152 39.5863 32.9375 39.5146 33.2598C39.4502 33.5749 39.3464 33.8864 39.2031 34.1943C39.0599 34.5023 38.8522 34.7601 38.5801 34.9678C38.3151 35.1683 38.0036 35.2829 37.6455 35.3115C36.9867 35.2256 36.4782 34.9463 36.1201 34.4736C35.762 33.9938 35.583 33.4066 35.583 32.7119ZM37.4092 29.8545C37.1585 29.8831 36.9473 30.1123 36.7754 30.542C36.6035 30.9717 36.4925 31.3906 36.4424 31.7988C36.3923 32.1999 36.3672 32.5544 36.3672 32.8623C36.3672 33.2633 36.4889 33.6357 36.7324 33.9795C36.9831 34.3161 37.2624 34.4844 37.5703 34.4844C37.7923 34.4844 37.9928 34.3984 38.1719 34.2266C38.3509 34.0547 38.4906 33.8434 38.5908 33.5928C38.6982 33.335 38.777 33.0771 38.8271 32.8193C38.8844 32.5615 38.9131 32.3324 38.9131 32.1318C38.9131 31.5446 38.7806 31.0326 38.5156 30.5957C38.2507 30.1589 37.8818 29.9118 37.4092 29.8545ZM43.2529 37.9971L42.7051 37.8896C42.6764 37.3239 42.6621 36.3714 42.6621 35.0322C41.9245 35.0322 41.3408 34.8317 40.9111 34.4307C40.4814 34.0225 40.2666 33.471 40.2666 32.7764C40.2666 31.9456 40.4886 31.2044 40.9326 30.5527C41.3838 29.8939 41.9997 29.5609 42.7803 29.5537C42.7731 29.389 42.7695 29.1921 42.7695 28.9629C42.7695 28.7266 42.7839 28.3434 42.8125 27.8135V27.7275C42.9056 27.6559 43.0238 27.6201 43.167 27.6201C43.3245 27.6201 43.4678 27.6559 43.5967 27.7275C43.5537 28.4007 43.5322 28.9199 43.5322 29.2852V29.5859H43.6074C44.1875 29.5859 44.6995 29.9368 45.1436 30.6387C45.5947 31.3405 45.8203 32.0745 45.8203 32.8408C45.8203 33.4567 45.6019 33.9831 45.165 34.4199C44.7282 34.8496 44.1947 35.0645 43.5645 35.0645C43.4714 35.0645 43.4033 35.0609 43.3604 35.0537C43.346 35.5192 43.3281 36.0026 43.3066 36.5039C43.2852 37.0124 43.2673 37.5101 43.2529 37.9971ZM42.6621 34.3447C42.6621 34.001 42.6872 33.4782 42.7373 32.7764C42.7946 32.0674 42.8232 31.5339 42.8232 31.1758C42.8232 30.8034 42.8053 30.4811 42.7695 30.209C42.7624 30.209 42.7301 30.2054 42.6729 30.1982C42.6227 30.1839 42.5833 30.1768 42.5547 30.1768C42.082 30.1768 41.6882 30.431 41.373 30.9395C41.0651 31.4479 40.9111 32.0101 40.9111 32.626C40.9111 33.1273 41.0293 33.5462 41.2656 33.8828C41.502 34.2122 41.8493 34.377 42.3076 34.377C42.4222 34.377 42.5404 34.3662 42.6621 34.3447ZM43.5 30.3164L43.3604 34.3662H43.457C44.0085 34.3662 44.4167 34.2122 44.6816 33.9043C44.9466 33.5892 45.0791 33.1917 45.0791 32.7119C45.0791 32.1462 44.9215 31.6126 44.6064 31.1113C44.2913 30.61 43.9225 30.3451 43.5 30.3164ZM47.4209 34.1084C47.4209 34.2301 47.4281 34.3913 47.4424 34.5918C47.3779 34.8138 47.2526 34.9248 47.0664 34.9248C46.9375 34.9248 46.8122 34.8747 46.6904 34.7744C46.5758 34.667 46.5042 34.5381 46.4756 34.3877C46.4971 33.8076 46.5221 32.959 46.5508 31.8418C46.5866 30.7246 46.6117 29.9691 46.626 29.5752L47.1201 29.4893C47.2061 29.9476 47.2598 30.5563 47.2812 31.3154C47.3027 32.0745 47.3314 32.6403 47.3672 33.0127C47.5033 32.8122 47.89 32.2894 48.5273 31.4443C49.1647 30.5993 49.598 29.9691 49.8271 29.5537C49.9847 29.5251 50.085 29.5107 50.1279 29.5107C50.264 29.5107 50.3571 29.5716 50.4072 29.6934C50.4645 29.8151 50.5003 30.0443 50.5146 30.3809L50.7188 34.8066C50.6543 35.0215 50.529 35.1289 50.3428 35.1289C50.2139 35.1289 50.0885 35.0788 49.9668 34.9785C49.8522 34.8711 49.7806 34.7422 49.752 34.5918C49.7591 34.3555 49.777 33.779 49.8057 32.8623C49.8415 31.9385 49.8701 31.2832 49.8916 30.8965C48.667 32.293 47.8434 33.3636 47.4209 34.1084ZM50.4502 35.9668L50.2783 35.5049C50.5146 35.4118 50.7295 35.265 50.9229 35.0645C51.109 34.8639 51.263 34.6562 51.3848 34.4414C51.5065 34.2194 51.6104 33.9437 51.6963 33.6143C51.7822 33.2848 51.8431 32.9984 51.8789 32.7549C51.9219 32.5042 51.9541 32.1963 51.9756 31.8311C51.9971 31.4658 52.0078 31.1937 52.0078 31.0146C52.015 30.8285 52.0186 30.5814 52.0186 30.2734C52.0186 29.8366 52.0579 29.5752 52.1367 29.4893C52.237 29.3818 52.792 29.3281 53.8018 29.3281C54.5967 29.3281 55.0479 29.3245 55.1553 29.3174C55.1696 32.2249 55.2054 34.112 55.2627 34.9785C55.1911 35.1934 55.0658 35.3008 54.8867 35.3008C54.765 35.3008 54.6468 35.2507 54.5322 35.1504C54.4176 35.0501 54.346 34.9284 54.3174 34.7852C54.3102 34.5059 54.3066 34.0905 54.3066 33.5391C54.3066 33.2669 54.3066 32.8551 54.3066 32.3037C54.3138 31.7523 54.3174 31.3369 54.3174 31.0576C54.3174 30.542 54.3138 30.1553 54.3066 29.8975C54.0059 29.9476 53.7087 29.9762 53.415 29.9834C53.1214 29.9906 52.9137 30.0013 52.792 30.0156C52.7705 30.252 52.7526 30.6029 52.7383 31.0684C52.724 31.5339 52.7096 31.9456 52.6953 32.3037C52.6882 32.6546 52.6452 33.0557 52.5664 33.5068C52.4876 33.9508 52.373 34.3304 52.2227 34.6455C52.0794 34.9535 51.8538 35.2292 51.5459 35.4727C51.2451 35.7233 50.8799 35.888 50.4502 35.9668ZM56.165 29.5537L56.6484 29.6611C56.6628 29.8903 56.6842 30.1589 56.7129 30.4668C56.7487 30.7747 56.7881 31.1257 56.8311 31.5195C57.1175 31.4336 57.3896 31.3906 57.6475 31.3906C57.9554 31.3906 58.2419 31.4515 58.5068 31.5732C58.7718 31.6878 58.9974 31.8418 59.1836 32.0352C59.3698 32.2285 59.5166 32.4505 59.624 32.7012C59.7314 32.9447 59.7852 33.1953 59.7852 33.4531C59.7852 33.7038 59.7314 33.9329 59.624 34.1406C59.5166 34.3483 59.3734 34.5273 59.1943 34.6777C59.0153 34.821 58.8076 34.932 58.5713 35.0107C58.335 35.0967 58.0843 35.1396 57.8193 35.1396C57.7692 35.1396 57.6582 35.1361 57.4863 35.1289C57.3145 35.1217 57.1318 35.1038 56.9385 35.0752C56.7523 35.0537 56.584 35.0215 56.4336 34.9785C56.2832 34.9355 56.2044 34.8747 56.1973 34.7959C56.1973 34.6742 56.1937 34.5094 56.1865 34.3018C56.1865 34.0869 56.1829 33.8506 56.1758 33.5928C56.1758 33.335 56.1722 33.0664 56.165 32.7871C56.1579 32.5007 56.1507 32.2249 56.1436 31.96C56.1436 31.695 56.14 31.4515 56.1328 31.2295C56.1328 31.0075 56.1328 30.832 56.1328 30.7031C56.1328 30.3021 56.1436 29.9189 56.165 29.5537ZM56.9277 32.1855L56.8311 34.3447C57.1175 34.445 57.3896 34.4951 57.6475 34.4951C57.848 34.4951 58.0306 34.4629 58.1953 34.3984C58.3672 34.3268 58.5104 34.2373 58.625 34.1299C58.7396 34.0153 58.8291 33.8864 58.8936 33.7432C58.958 33.5999 58.9902 33.4495 58.9902 33.292C58.9902 33.1344 58.958 32.9876 58.8936 32.8516C58.8291 32.7083 58.7324 32.583 58.6035 32.4756C58.4746 32.3682 58.3171 32.2858 58.1309 32.2285C57.9447 32.1641 57.7334 32.1318 57.4971 32.1318C57.4183 32.1318 57.3324 32.139 57.2393 32.1533C57.1462 32.1605 57.0423 32.1712 56.9277 32.1855Z" fill="white"/>
</g>
<defs>
<filter id="filter0_d" x="0.441406" y="0" width="63.3438" height="46.126" filterUnits="userSpaceOnUse" color-interpolation-filters="sRGB">
<feFlood flood-opacity="0" result="BackgroundImageFix"/>
<feColorMatrix in="SourceAlpha" type="matrix" values="0 0 0 0 0 0 0 0 0 0 0 0 0 0 0 0 0 0 127 0"/>
<feOffset dy="4"/>
<feGaussianBlur stdDeviation="2"/>
<feColorMatrix type="matrix" values="0 0 0 0 0 0 0 0 0 0 0 0 0 0 0 0 0 0 0.25 0"/>
<feBlend mode="normal" in2="BackgroundImageFix" result="effect1_dropShadow"/>
<feBlend mode="normal" in="SourceGraphic" in2="effect1_dropShadow" result="shape"/>
</filter>
</defs>
</svg>
