<svg width="57" height="41" viewBox="0 0 57 41" fill="none" xmlns="http://www.w3.org/2000/svg">
<g filter="url(#filter0_d)">
<g clip-path="url(#clip0)">
<path d="M20.5417 7.50028C21.5724 7.50028 22.4521 7.17488 23.1811 6.5238C23.9104 5.87277 24.275 5.08707 24.275 4.16696C24.275 3.24694 23.9104 2.46123 23.1811 1.81011C22.4521 1.15908 21.5723 0.833496 20.5417 0.833496C19.511 0.833496 18.6313 1.15908 17.9021 1.81011C17.173 2.46123 16.8083 3.24676 16.8083 4.16696C16.8083 5.08725 17.173 5.87277 17.9021 6.5238C18.6313 7.1747 19.511 7.50028 20.5417 7.50028Z" fill="white"/>
<path d="M24.9822 12.7025C26.076 13.6787 27.3956 14.1671 28.9417 14.1671C30.4878 14.1671 31.8074 13.6787 32.9011 12.7025C33.9946 11.7256 34.5416 10.5472 34.5416 9.16709C34.5416 7.78686 33.9946 6.60853 32.9011 5.63191C31.8074 4.6553 30.4878 4.16699 28.9417 4.16699C27.3956 4.16699 26.0759 4.65539 24.9822 5.63191C23.8886 6.60839 23.3416 7.78672 23.3416 9.16709C23.3416 10.5475 23.8886 11.7257 24.9822 12.7025Z" fill="white"/>
<path d="M37.3421 7.50028C38.3723 7.50028 39.2523 7.17488 39.9814 6.5238C40.7105 5.87277 41.0749 5.08707 41.0749 4.16696C41.0749 3.24694 40.7105 2.46123 39.9814 1.81011C39.2523 1.15908 38.3723 0.833496 37.3421 0.833496C36.3111 0.833496 35.4314 1.15908 34.7022 1.81011C33.9732 2.46123 33.6086 3.24676 33.6086 4.16696C33.6086 5.08725 33.9733 5.87277 34.7022 6.5238C35.4314 7.1747 36.3111 7.50028 37.3421 7.50028Z" fill="white"/>
<path d="M41.1331 7.50049C41.0751 7.50049 40.8636 7.59166 40.499 7.77394C40.1347 7.95632 39.6604 8.1408 39.0773 8.32747C38.4942 8.51395 37.9154 8.60731 37.342 8.60731C36.6903 8.60731 36.0443 8.50757 35.4024 8.30781C35.4507 8.62884 35.4751 8.91538 35.4751 9.16713C35.4751 10.3737 35.0813 11.4848 34.2935 12.5005C35.8688 12.544 37.1568 13.0994 38.1585 14.1675H40.1126C40.9097 14.1675 41.5806 13.9913 42.1249 13.6398C42.6693 13.2885 42.9416 12.7739 42.9416 12.0969C42.9418 9.03245 42.3392 7.50031 41.1331 7.50049Z" fill="white"/>
<path d="M38.9538 18.0275C38.8517 17.5197 38.7227 17.0486 38.5671 16.6147C38.4115 16.1805 38.2024 15.7576 37.9403 15.3452C37.6777 14.9332 37.3762 14.5814 37.0359 14.2905C36.6954 13.9996 36.2797 13.7677 35.7889 13.5938C35.298 13.4202 34.7558 13.3335 34.1629 13.3335C34.0655 13.3335 33.8566 13.4269 33.5357 13.6135C33.2148 13.8 32.8602 14.0087 32.4712 14.2384C32.0822 14.4681 31.5625 14.6766 30.9107 14.8633C30.2588 15.05 29.6027 15.1433 28.9419 15.1433C28.2809 15.1433 27.6245 15.05 26.9731 14.8633C26.3215 14.6766 25.8016 14.4681 25.4126 14.2384C25.0236 14.0087 24.6689 13.8 24.3481 13.6135C24.0272 13.4269 23.8183 13.3335 23.7209 13.3335C23.1279 13.3335 22.5859 13.4202 22.0949 13.5938C21.6039 13.7677 21.1883 13.9996 20.8481 14.2905C20.5075 14.5811 20.2064 14.9332 19.9437 15.3452C19.6813 15.7576 19.4723 16.1805 19.3167 16.6147C19.1612 17.0486 19.0325 17.5197 18.9302 18.0275C18.8281 18.5354 18.7601 19.0083 18.7261 19.4468C18.692 19.8853 18.675 20.3346 18.675 20.7947C18.675 21.8362 19.0298 22.6588 19.7395 23.2619C20.4494 23.865 21.3926 24.1668 22.5687 24.1668H35.3147C36.491 24.1668 37.434 23.865 38.1441 23.2619C38.8538 22.6588 39.2087 21.8362 39.2087 20.7947C39.2087 20.3346 39.1915 19.8854 39.158 19.4468C39.1235 19.0083 39.0555 18.5354 38.9538 18.0275Z" fill="white"/>
<path d="M23.5895 12.5005C22.802 11.4848 22.4083 10.3737 22.4085 9.16713C22.4085 8.91538 22.4328 8.62902 22.4813 8.30781C21.8396 8.50743 21.1931 8.60731 20.5417 8.60731C19.968 8.60731 19.3897 8.514 18.8063 8.32747C18.2231 8.1408 17.749 7.95632 17.3846 7.77394C17.02 7.59166 16.8083 7.50049 16.7501 7.50049C15.5444 7.50053 14.9417 9.03268 14.9417 12.0969C14.9417 12.7739 15.2139 13.2885 15.7583 13.6398C16.3028 13.9913 16.9736 14.1671 17.7706 14.1671H19.7249C20.7264 13.0994 22.0144 12.544 23.5895 12.5005Z" fill="white"/>
</g>
<path d="M7.75391 28.2764L8.37695 28.1475C8.50586 29.1572 8.58464 30.5609 8.61328 32.3584C8.64909 34.1488 8.6849 35.334 8.7207 35.9141C8.65625 36.1361 8.53092 36.2471 8.34473 36.2471C8.21582 36.2471 8.09049 36.1934 7.96875 36.0859C7.85417 35.9785 7.78255 35.8496 7.75391 35.6992C7.76107 35.4414 7.76465 35.0117 7.76465 34.4102V32.2939C7.6071 32.3011 7.38509 32.319 7.09863 32.3477C6.81934 32.3691 6.56152 32.387 6.3252 32.4014C6.09603 32.4157 5.8776 32.4229 5.66992 32.4229C5.48372 32.4229 5.34766 32.4193 5.26172 32.4121C5.27604 32.849 5.30111 33.4684 5.33691 34.2705C5.37272 35.0654 5.39779 35.6133 5.41211 35.9141C5.34766 36.1361 5.22233 36.2471 5.03613 36.2471C4.90723 36.2471 4.7819 36.1934 4.66016 36.0859C4.54557 35.9785 4.47396 35.8496 4.44531 35.6992C4.4668 35.0833 4.4847 33.8874 4.49902 32.1113C4.52051 30.3353 4.55632 29.014 4.60645 28.1475L5.08984 28.2549C5.08984 28.2764 5.08984 28.3122 5.08984 28.3623C5.09701 28.4053 5.10059 28.4411 5.10059 28.4697C5.19368 30.2314 5.2474 31.3343 5.26172 31.7783C5.50521 31.7568 5.76302 31.7354 6.03516 31.7139C6.31445 31.6852 6.61882 31.6566 6.94824 31.6279C7.28483 31.5921 7.54622 31.5671 7.73242 31.5527C7.73958 31.5527 7.74316 31.5169 7.74316 31.4453C7.74316 31.3737 7.74316 31.0837 7.74316 30.5752C7.75033 30.0667 7.75391 29.3005 7.75391 28.2764ZM9.98828 31.3594L9.77344 30.8115C9.95964 30.6253 10.196 30.4785 10.4824 30.3711C10.7689 30.2565 11.0518 30.1992 11.3311 30.1992C12.5413 30.1992 13.1465 31.2448 13.1465 33.3359C13.1465 33.6224 13.1286 34.0449 13.0928 34.6035C13.0641 35.1621 13.0498 35.5811 13.0498 35.8604C12.9925 36.0824 12.8815 36.1934 12.7168 36.1934C12.5879 36.1934 12.4697 36.1289 12.3623 36C12.2549 35.8711 12.2012 35.7279 12.2012 35.5703C12.2012 35.5202 12.2048 35.4844 12.2119 35.4629C11.7679 35.8926 11.2952 36.1074 10.7939 36.1074C10.4144 36.1074 10.0814 35.9714 9.79492 35.6992C9.51562 35.4199 9.37598 35.0833 9.37598 34.6895C9.37598 34.0234 9.63379 33.4219 10.1494 32.8848C10.6722 32.3477 11.263 32.0791 11.9219 32.0791C11.9505 32.0791 11.9792 32.0827 12.0078 32.0898C12.0365 32.0898 12.0687 32.0934 12.1045 32.1006C12.1475 32.1077 12.1797 32.1113 12.2012 32.1113C12.1439 31.2734 11.8109 30.8545 11.2021 30.8545C10.8441 30.8545 10.4395 31.0228 9.98828 31.3594ZM12.2334 34.7217C12.2477 34.2204 12.2549 33.8408 12.2549 33.583C12.2549 33.3682 12.2477 33.0674 12.2334 32.6807H12.1475C11.639 32.6878 11.1735 32.8776 10.751 33.25C10.3356 33.6224 10.1279 34.0736 10.1279 34.6035C10.1279 34.8327 10.196 35.0153 10.332 35.1514C10.4753 35.2874 10.6471 35.3555 10.8477 35.3555C11.1628 35.3555 11.6247 35.1442 12.2334 34.7217ZM18.9473 30.4141L19.4307 30.5215C19.4521 31.0013 19.4629 32.1686 19.4629 34.0234C19.4629 34.9473 19.4736 35.6169 19.4951 36.0322C18.9508 36.0465 18.2419 36.0537 17.3682 36.0537C15.6781 36.0537 14.5609 36.0358 14.0166 36C14.0381 35.5918 14.0632 34.6859 14.0918 33.2822C14.1204 31.8714 14.1598 30.8581 14.21 30.2422L14.6934 30.3604C14.7435 30.9619 14.7829 31.8822 14.8115 33.1211C14.8402 34.36 14.8581 35.1012 14.8652 35.3447C15.0228 35.3304 15.3057 35.3232 15.7139 35.3232C16.1292 35.3161 16.3978 35.3089 16.5195 35.3018C16.5339 35.0511 16.541 34.6572 16.541 34.1201C16.541 33.9124 16.5374 33.5938 16.5303 33.1641C16.5303 32.7344 16.5303 32.4121 16.5303 32.1973C16.5303 31.4954 16.5553 30.8796 16.6055 30.3496L17.0889 30.457C17.1318 31.0299 17.1641 31.9287 17.1855 33.1533C17.2142 34.3779 17.2321 35.0798 17.2393 35.2588C17.9697 35.2588 18.4818 35.2552 18.7754 35.248C18.7969 34.8184 18.8219 34.0413 18.8506 32.917C18.8864 31.7926 18.9186 30.9583 18.9473 30.4141ZM20.752 31.3594L20.5371 30.8115C20.7233 30.6253 20.9596 30.4785 21.2461 30.3711C21.5326 30.2565 21.8154 30.1992 22.0947 30.1992C23.305 30.1992 23.9102 31.2448 23.9102 33.3359C23.9102 33.6224 23.8923 34.0449 23.8564 34.6035C23.8278 35.1621 23.8135 35.5811 23.8135 35.8604C23.7562 36.0824 23.6452 36.1934 23.4805 36.1934C23.3516 36.1934 23.2334 36.1289 23.126 36C23.0186 35.8711 22.9648 35.7279 22.9648 35.5703C22.9648 35.5202 22.9684 35.4844 22.9756 35.4629C22.5316 35.8926 22.0589 36.1074 21.5576 36.1074C21.1781 36.1074 20.8451 35.9714 20.5586 35.6992C20.2793 35.4199 20.1396 35.0833 20.1396 34.6895C20.1396 34.0234 20.3975 33.4219 20.9131 32.8848C21.4359 32.3477 22.0267 32.0791 22.6855 32.0791C22.7142 32.0791 22.7428 32.0827 22.7715 32.0898C22.8001 32.0898 22.8324 32.0934 22.8682 32.1006C22.9111 32.1077 22.9434 32.1113 22.9648 32.1113C22.9076 31.2734 22.5745 30.8545 21.9658 30.8545C21.6077 30.8545 21.2031 31.0228 20.752 31.3594ZM22.9971 34.7217C23.0114 34.2204 23.0186 33.8408 23.0186 33.583C23.0186 33.3682 23.0114 33.0674 22.9971 32.6807H22.9111C22.4027 32.6878 21.9372 32.8776 21.5146 33.25C21.0993 33.6224 20.8916 34.0736 20.8916 34.6035C20.8916 34.8327 20.9596 35.0153 21.0957 35.1514C21.2389 35.2874 21.4108 35.3555 21.6113 35.3555C21.9264 35.3555 22.3883 35.1442 22.9971 34.7217ZM28.0352 29.2754L27.7021 28.9209C28.4684 28.4124 29.1667 28.1582 29.7969 28.1582C30.3411 28.1582 30.7816 28.3551 31.1182 28.749C31.4548 29.1357 31.623 29.6156 31.623 30.1885C31.623 30.9046 31.3796 31.4095 30.8926 31.7031C31.2507 31.7604 31.5192 31.9753 31.6982 32.3477C31.8773 32.7129 31.9668 33.1497 31.9668 33.6582C31.9668 34.4316 31.8021 35.0296 31.4727 35.4521C31.1432 35.8747 30.5954 36.0859 29.8291 36.0859C29.3135 36.0859 28.8265 35.9714 28.3682 35.7422C27.917 35.513 27.5983 35.1836 27.4121 34.7539C27.4479 34.7253 27.473 34.6966 27.4873 34.668C27.5016 34.6393 27.5124 34.6178 27.5195 34.6035C27.5267 34.5892 27.5446 34.5713 27.5732 34.5498C27.609 34.5212 27.6628 34.4889 27.7344 34.4531C28.0495 34.7396 28.4004 34.9723 28.7871 35.1514C29.1738 35.3232 29.5391 35.4092 29.8828 35.4092C30.2695 35.4092 30.5775 35.2839 30.8066 35.0332C31.043 34.7754 31.1611 34.3815 31.1611 33.8516C31.1611 33.3073 31.0072 32.8669 30.6992 32.5303C30.3913 32.1937 29.9365 32.0254 29.335 32.0254C29.249 32.0254 29.0986 32.0326 28.8838 32.0469C28.8766 32.0039 28.8587 31.9251 28.8301 31.8105C28.8086 31.696 28.7799 31.5133 28.7441 31.2627C28.8229 31.2555 28.9661 31.2484 29.1738 31.2412C29.3815 31.2269 29.5283 31.2161 29.6143 31.209C29.7002 31.1947 29.8219 31.1732 29.9795 31.1445C30.1442 31.1087 30.2624 31.0622 30.334 31.0049C30.4128 30.9476 30.4951 30.876 30.5811 30.79C30.6742 30.6969 30.7386 30.5788 30.7744 30.4355C30.8102 30.2923 30.8281 30.124 30.8281 29.9307C30.8281 29.5798 30.71 29.3255 30.4736 29.168C30.2445 29.0033 29.9365 28.9209 29.5498 28.9209C29.0342 28.9209 28.5293 29.0391 28.0352 29.2754ZM37.166 34.958L37.2734 35.4307C36.9583 35.5452 36.4893 35.6742 35.8662 35.8174C35.2503 35.9535 34.792 36.0215 34.4912 36.0215C34.1833 36.0215 33.9147 35.9212 33.6855 35.7207C33.4564 35.513 33.2845 35.2516 33.1699 34.9365C33.0553 34.6143 32.9694 34.2992 32.9121 33.9912C32.862 33.6761 32.8369 33.3682 32.8369 33.0674C32.8369 31.277 33.6462 30.3818 35.2646 30.3818C35.6514 30.3818 35.9915 30.5072 36.2852 30.7578C36.5788 31.0013 36.7256 31.32 36.7256 31.7139C36.7256 31.9287 36.6647 32.1185 36.543 32.2832C36.4284 32.4479 36.2852 32.5804 36.1133 32.6807C35.9486 32.7738 35.7337 32.8597 35.4688 32.9385C35.2109 33.0173 34.9818 33.0745 34.7812 33.1104C34.5807 33.1462 34.3408 33.1855 34.0615 33.2285C33.7822 33.2715 33.5889 33.3037 33.4814 33.3252C33.4886 33.5329 33.4993 33.7155 33.5137 33.873C33.5352 34.0306 33.571 34.2025 33.6211 34.3887C33.6784 34.5677 33.75 34.7181 33.8359 34.8398C33.929 34.9544 34.0544 35.0511 34.2119 35.1299C34.3695 35.2087 34.5557 35.248 34.7705 35.248C35.0283 35.248 35.3434 35.2266 35.7158 35.1836C36.0882 35.1335 36.4176 35.0833 36.7041 35.0332C36.9977 34.9831 37.1517 34.958 37.166 34.958ZM33.5244 32.6592C34.4984 32.3799 35.2969 32.0863 35.9199 31.7783C35.8698 31.542 35.8018 31.3701 35.7158 31.2627C35.6299 31.1553 35.501 31.1016 35.3291 31.1016C34.8923 31.1016 34.4948 31.252 34.1367 31.5527C33.7858 31.8535 33.5817 32.2223 33.5244 32.6592ZM41.9141 30.7041L42.6445 30.6396C43.0026 31.6064 43.3678 33.4076 43.7402 36.043C43.6185 36.0716 43.4967 36.0859 43.375 36.0859C43.2676 36.0859 43.1423 36.068 42.999 36.0322C42.8988 35.6383 42.777 34.9437 42.6338 33.9482C42.4977 32.9528 42.376 32.2474 42.2686 31.832C41.9176 32.4049 41.445 33.4577 40.8506 34.9902C40.8005 34.9974 40.7109 35.0117 40.582 35.0332C40.4603 35.0547 40.3672 35.0654 40.3027 35.0654C40.224 35.0654 40.1309 35.0547 40.0234 35.0332C39.9089 34.7396 39.737 34.2705 39.5078 33.626C39.2858 32.9743 39.1068 32.4837 38.9707 32.1543C38.2832 33.916 37.8535 35.2194 37.6816 36.0645L37.2627 35.9463C37.2985 35.402 37.4954 34.4531 37.8535 33.0996C38.2116 31.7389 38.4264 30.8724 38.498 30.5C38.584 30.5 38.6807 30.5107 38.7881 30.5322C38.9027 30.5465 38.9886 30.5537 39.0459 30.5537C39.2321 30.876 39.4863 31.4954 39.8086 32.4121C40.1309 33.3216 40.3457 33.891 40.4531 34.1201C40.9974 32.5732 41.4844 31.4346 41.9141 30.7041ZM43.0312 36.9668L42.8594 36.5049C43.0957 36.4118 43.3105 36.265 43.5039 36.0645C43.6901 35.8639 43.8441 35.6562 43.9658 35.4414C44.0876 35.2194 44.1914 34.9437 44.2773 34.6143C44.3633 34.2848 44.4242 33.9984 44.46 33.7549C44.5029 33.5042 44.5352 33.1963 44.5566 32.8311C44.5781 32.4658 44.5889 32.1937 44.5889 32.0146C44.596 31.8285 44.5996 31.5814 44.5996 31.2734C44.5996 30.8366 44.639 30.5752 44.7178 30.4893C44.818 30.3818 45.373 30.3281 46.3828 30.3281C47.1777 30.3281 47.6289 30.3245 47.7363 30.3174C47.7507 33.2249 47.7865 35.112 47.8438 35.9785C47.7721 36.1934 47.6468 36.3008 47.4678 36.3008C47.346 36.3008 47.2279 36.2507 47.1133 36.1504C46.9987 36.0501 46.9271 35.9284 46.8984 35.7852C46.8913 35.5059 46.8877 35.0905 46.8877 34.5391C46.8877 34.2669 46.8877 33.8551 46.8877 33.3037C46.8949 32.7523 46.8984 32.3369 46.8984 32.0576C46.8984 31.542 46.8949 31.1553 46.8877 30.8975C46.5869 30.9476 46.2897 30.9762 45.9961 30.9834C45.7025 30.9906 45.4948 31.0013 45.373 31.0156C45.3516 31.252 45.3337 31.6029 45.3193 32.0684C45.305 32.5339 45.2907 32.9456 45.2764 33.3037C45.2692 33.6546 45.2262 34.0557 45.1475 34.5068C45.0687 34.9508 44.9541 35.3304 44.8037 35.6455C44.6605 35.9535 44.4349 36.2292 44.127 36.4727C43.8262 36.7233 43.4609 36.888 43.0312 36.9668ZM52.3984 30.4248L52.5596 36.1934C52.488 36.4082 52.3662 36.5156 52.1943 36.5156C52.0726 36.5156 51.9508 36.4655 51.8291 36.3652C51.7145 36.265 51.6429 36.1432 51.6143 36L51.7217 33.6689C51.4209 33.8623 51.1094 33.9626 50.7871 33.9697C50.515 34.8649 50.1712 35.5202 49.7559 35.9355C49.3477 36.3509 48.6924 36.6839 47.79 36.9346L47.6182 36.4727C48.9574 36.1361 49.7201 35.2516 49.9062 33.8193C49.5625 33.6761 49.276 33.4577 49.0469 33.1641C48.8249 32.8704 48.7139 32.5339 48.7139 32.1543C48.7139 31.3952 48.9072 30.8903 49.2939 30.6396C49.6807 30.389 50.293 30.2637 51.1309 30.2637C51.5677 30.2637 51.9902 30.3174 52.3984 30.4248ZM51.8076 32.7666L51.7539 31.0693C51.5033 30.9906 51.1344 30.9512 50.6475 30.9512C50.3037 30.9512 50.0101 31.0299 49.7666 31.1875C49.5231 31.3379 49.4014 31.585 49.4014 31.9287C49.4014 32.3154 49.5553 32.6484 49.8633 32.9277C50.1712 33.1999 50.5078 33.3359 50.873 33.3359C51.3027 33.3359 51.6143 33.1462 51.8076 32.7666Z" fill="white"/>
</g>
<defs>
<filter id="filter0_d" x="0.445312" y="0" width="56.1143" height="44.9668" filterUnits="userSpaceOnUse" color-interpolation-filters="sRGB">
<feFlood flood-opacity="0" result="BackgroundImageFix"/>
<feColorMatrix in="SourceAlpha" type="matrix" values="0 0 0 0 0 0 0 0 0 0 0 0 0 0 0 0 0 0 127 0"/>
<feOffset dy="4"/>
<feGaussianBlur stdDeviation="2"/>
<feColorMatrix type="matrix" values="0 0 0 0 0 0 0 0 0 0 0 0 0 0 0 0 0 0 0.25 0"/>
<feBlend mode="normal" in2="BackgroundImageFix" result="effect1_dropShadow"/>
<feBlend mode="normal" in="SourceGraphic" in2="effect1_dropShadow" result="shape"/>
</filter>
<clipPath id="clip0">
<rect width="28" height="25" fill="white" transform="translate(14.9417)"/>
</clipPath>
</defs>
</svg>
